<svg xmlns="http://www.w3.org/2000/svg" width="32" height="32" viewBox="0 0 24 24"><!-- Icon from Ultimate color icons by Streamline - https://creativecommons.org/licenses/by/4.0/ --><g fill="none"><path fill="#e3e3e3" d="M1.717 1c2.763 3.145 5.74 3.992 5.74 5.74c0 1.328-3.348 1.422-3.348 2.869c0 1.882 16.613 7.778 11 13.391h1.913s5.26-2.79 5.26-4.783S17.5 11.594 17.5 9.61s4.782-4.122 4.782-5.74C22.283 2.253 20.37 1 20.37 1z"/><path fill="#fff" d="M10.523 9.609c0-1.446 3.348-2.845 3.348-4.174C13.87 3.688 8.13 1 8.13 1H1.718c2.763 3.145 5.74 3.992 5.74 5.74c0 1.328-3.348 1.423-3.348 2.869c0 1.882 16.613 7.778 11 13.391h1.434c5.613-5.613-6.02-11.509-6.02-13.391"/><path stroke="#191919" stroke-linecap="round" stroke-linejoin="round" d="M1.717 1H20.37M5.065 3.87h17.217M7.457 6.74H19.89M4.108 9.609H17.5m-9.087 2.869h10.522m-6.695 2.87h8.608m-5.261 2.869h6.696m-5.261 2.87h3.347M15.108 23h1.913"/></g></svg>
