<svg xmlns="http://www.w3.org/2000/svg" fill="none" viewBox="0 0 24 24" id="Gauge-Dashboard--Streamline-Ultimate">
  <path fill="#66e1ff" d="M12 2.5A11.5 11.5 0 0 0 0.5 14v3.5a1 1 0 0 0 1 1h21a1 1 0 0 0 1 -1V14A11.5 11.5 0 0 0 12 2.5Z" stroke-width="1"></path>
  <path fill="#c2f3ff" d="M18.665 4.627A11.5 11.5 0 0 0 0.5 14v3.5a1 1 0 0 0 1 1h3.292L18.665 4.627Z" stroke-width="1"></path>
  <path stroke="#191919" stroke-linecap="round" stroke-linejoin="round" d="M12 2.5A11.5 11.5 0 0 0 0.5 14v3.5a1 1 0 0 0 1 1h21a1 1 0 0 0 1 -1V14A11.5 11.5 0 0 0 12 2.5v0Z" stroke-width="1"></path>
  <path fill="#ff808c" stroke="#191919" stroke-linecap="round" stroke-linejoin="round" d="M12 15.5a1.5 1.5 0 1 0 0 -3 1.5 1.5 0 0 0 0 3Z" stroke-width="1"></path>
  <path stroke="#191919" stroke-linecap="round" stroke-linejoin="round" d="m13.06 12.939 4.951 -4.949" stroke-width="1"></path>
  <path stroke="#191919" stroke-linecap="round" stroke-linejoin="round" d="M2.5 14.5h2" stroke-width="1"></path>
  <path stroke="#191919" stroke-linecap="round" stroke-linejoin="round" d="M21.5 14.5h-2" stroke-width="1"></path>
  <path stroke="#191919" stroke-linecap="round" stroke-linejoin="round" d="m20.776 10.365 -1.847 0.765" stroke-width="1"></path>
  <path stroke="#191919" stroke-linecap="round" stroke-linejoin="round" d="m15.635 5.223 -0.765 1.848" stroke-width="1"></path>
  <path stroke="#191919" stroke-linecap="round" stroke-linejoin="round" d="M12 4.5v2" stroke-width="1"></path>
  <path stroke="#191919" stroke-linecap="round" stroke-linejoin="round" d="m8.365 5.223 0.765 1.848" stroke-width="1"></path>
  <path stroke="#191919" stroke-linecap="round" stroke-linejoin="round" d="m5.283 7.282 1.412 1.415" stroke-width="1"></path>
  <path stroke="#191919" stroke-linecap="round" stroke-linejoin="round" d="m3.224 10.365 1.846 0.765" stroke-width="1"></path>
</svg>
